<?xml version="1.0" encoding="iso-8859-1"?>
<!-- Generator: Adobe Illustrator 24.0.1, SVG Export Plug-In . SVG Version: 6.00 Build 0)  -->
<svg version="1.1" id="&#x5716;&#x5C64;_1" xmlns="http://www.w3.org/2000/svg" xmlns:xlink="http://www.w3.org/1999/xlink" x="0px"
	 y="0px" viewBox="0 0 386 100" style="enable-background:new 0 0 386 100;" xml:space="preserve">
<g>
	<path style="fill:#7B5F3F;" d="M155.78,53.596L91.111,9.637c-0.491-0.334-1.058-0.458-1.607-0.414
		c-0.549-0.045-1.114,0.079-1.605,0.412L23.543,53.254c-1.144,0.776-1.443,2.332-0.668,3.476c0.484,0.714,1.272,1.098,2.074,1.098
		c0.483,0,0.972-0.14,1.402-0.431l9.098-6.166v35.847c0,1.732,1.404,3.137,3.137,3.137h37.555l2.347-31.679l0.186-2.516
		c0.015-0.197,0.249-0.29,0.395-0.158l1.918,1.744l2.44,2.219h10.195l2.019-1.972l1.893-1.848c0.193-0.188,0.518-0.069,0.543,0.2
		l0.211,2.276l2.237,24.157c0.149-0.011,0.295-0.025,0.418-0.054c0.311-0.08,0.548-0.203,0.788-0.422
		c0.529-0.516,0.976-1.404,1.303-2.447c0.324-1.047,0.546-2.221,0.787-3.447c0.122-0.617,0.247-1.248,0.405-1.902
		c0.138-0.602,0.391-1.508,0.854-2.203c0.877-1.447,2.541-2.492,4.326-2.516c0.886-0.022,1.754,0.222,2.492,0.613
		c0.738,0.399,1.354,0.925,1.86,1.503l0.01,0.011c0.52,0.595,0.459,1.498-0.136,2.018c-0.595,0.52-1.498,0.459-2.018-0.136
		c-0.006-0.007-0.017-0.019-0.023-0.027c-0.613-0.737-1.396-1.123-2.112-1.083c-0.722,0.021-1.41,0.488-1.782,1.188
		c-0.204,0.366-0.276,0.68-0.393,1.291c-0.098,0.563-0.178,1.158-0.258,1.767c-0.158,1.227-0.317,2.516-0.662,3.865
		c-0.182,0.676-0.391,1.367-0.725,2.066c-0.344,0.694-0.791,1.388-1.407,2.012c-0.649,0.651-1.533,1.15-2.427,1.377
		c-0.328,0.082-0.648,0.121-0.964,0.144l0.367,3.959h39.058c1.732,0,3.137-1.404,3.137-3.137V51.249l9.543,6.487
		c0.431,0.293,0.92,0.433,1.405,0.433c0.801,0,1.588-0.383,2.072-1.096C157.22,55.93,156.923,54.373,155.78,53.596z"/>
</g>
<g>
	<path style="fill:#7B5F3F;" d="M171.223,69.383h3.608v5.51l6.504-5.51h2.787l-7.335,6.201l9.29,8.448h-4.354l-6.892-6.276v6.276
		h-3.608V69.383z"/>
	<path style="fill:#7B5F3F;" d="M191.96,69.113c0-0.223,0.047-0.436,0.141-0.637c0.093-0.202,0.223-0.374,0.389-0.519
		c0.166-0.144,0.356-0.259,0.572-0.346c0.216-0.086,0.45-0.13,0.702-0.13s0.488,0.044,0.708,0.13
		c0.219,0.087,0.41,0.202,0.572,0.346c0.162,0.145,0.29,0.318,0.384,0.519c0.093,0.202,0.14,0.414,0.14,0.637
		c0,0.223-0.047,0.434-0.14,0.632c-0.094,0.197-0.222,0.369-0.384,0.513c-0.162,0.144-0.353,0.259-0.572,0.346
		c-0.22,0.086-0.456,0.13-0.708,0.13s-0.486-0.044-0.702-0.13c-0.216-0.087-0.407-0.202-0.572-0.346
		c-0.166-0.144-0.296-0.315-0.389-0.513C192.007,69.547,191.96,69.337,191.96,69.113z M192.101,73.974l2.355-1.232h1.004v11.289
		h-3.36V73.974z"/>
	<path style="fill:#7B5F3F;" d="M201.96,74.352v-0.789l1.782-0.593v-2.247l2.344-1.232h1.005v3.479h2.712v1.382h-2.712v7.12
		c0,0.223,0.057,0.417,0.173,0.584c0.115,0.165,0.267,0.248,0.454,0.248c0.115,0,0.243-0.04,0.384-0.119
		c0.14-0.078,0.274-0.171,0.4-0.275c0.126-0.105,0.238-0.211,0.335-0.319c0.097-0.108,0.167-0.191,0.211-0.249l1.145,0.908
		c-0.187,0.288-0.393,0.556-0.616,0.805c-0.223,0.248-0.479,0.462-0.767,0.643c-0.288,0.18-0.62,0.322-0.994,0.427
		c-0.374,0.104-0.806,0.157-1.296,0.157c-0.468,0-0.875-0.068-1.221-0.201c-0.346-0.133-0.634-0.319-0.864-0.556
		c-0.231-0.238-0.403-0.523-0.519-0.854c-0.115-0.33-0.173-0.697-0.173-1.101v-7.217H201.96z"/>
	<path style="fill:#7B5F3F;" d="M215.319,74.352v-0.789l1.782-0.593v-2.247l2.344-1.232h1.005v3.479h2.712v1.382h-2.712v7.12
		c0,0.223,0.057,0.417,0.173,0.584c0.115,0.165,0.267,0.248,0.454,0.248c0.115,0,0.243-0.04,0.384-0.119
		c0.14-0.078,0.274-0.171,0.4-0.275c0.126-0.105,0.238-0.211,0.335-0.319c0.097-0.108,0.167-0.191,0.211-0.249l1.145,0.908
		c-0.187,0.288-0.393,0.556-0.616,0.805c-0.223,0.248-0.479,0.462-0.767,0.643c-0.288,0.18-0.62,0.322-0.994,0.427
		c-0.374,0.104-0.806,0.157-1.296,0.157c-0.468,0-0.875-0.068-1.221-0.201c-0.346-0.133-0.634-0.319-0.864-0.556
		c-0.231-0.238-0.403-0.523-0.519-0.854c-0.115-0.33-0.173-0.697-0.173-1.101v-7.217H215.319z"/>
	<path style="fill:#7B5F3F;" d="M230.071,86.646c0.072,0.036,0.167,0.083,0.286,0.141c0.119,0.058,0.248,0.112,0.389,0.162
		c0.14,0.05,0.29,0.093,0.448,0.13c0.158,0.036,0.317,0.054,0.475,0.054c0.13,0,0.26-0.075,0.389-0.226
		c0.13-0.151,0.252-0.328,0.368-0.529c0.115-0.202,0.218-0.403,0.308-0.605c0.09-0.202,0.157-0.35,0.2-0.443l0.961-2.085
		l-5.39-10.273h3.543l3.49,6.622l3.089-6.622h2.366l-6.115,13.32c-0.202,0.432-0.457,0.825-0.767,1.178
		c-0.31,0.352-0.648,0.653-1.016,0.901c-0.367,0.249-0.751,0.441-1.15,0.578c-0.4,0.136-0.794,0.205-1.183,0.205
		c-0.324,0-0.623-0.038-0.897-0.114c-0.274-0.075-0.512-0.189-0.713-0.34L230.071,86.646z"/>
	<path style="fill:#7B5F3F;" d="M246.153,74.45c0.317-0.087,0.616-0.205,0.897-0.356c0.281-0.151,0.524-0.324,0.729-0.518
		c0.205-0.195,0.368-0.402,0.486-0.621c0.119-0.22,0.179-0.441,0.179-0.665c0-0.086-0.005-0.156-0.017-0.21
		c-0.011-0.054-0.02-0.08-0.027-0.08c-0.058,0-0.119,0.016-0.183,0.048s-0.135,0.07-0.211,0.114c-0.076,0.043-0.16,0.08-0.254,0.113
		c-0.094,0.033-0.198,0.049-0.313,0.049c-0.173,0-0.339-0.039-0.497-0.114c-0.159-0.075-0.296-0.178-0.41-0.308
		c-0.115-0.13-0.207-0.282-0.276-0.459c-0.069-0.176-0.102-0.369-0.102-0.577c0-0.217,0.045-0.418,0.135-0.605
		c0.09-0.188,0.214-0.35,0.372-0.486c0.158-0.137,0.341-0.245,0.546-0.324c0.205-0.079,0.427-0.119,0.664-0.119
		c0.288,0,0.559,0.064,0.811,0.194c0.252,0.13,0.473,0.305,0.664,0.524c0.19,0.22,0.341,0.478,0.448,0.773
		c0.108,0.296,0.163,0.609,0.163,0.94c0,0.512-0.103,0.983-0.309,1.415c-0.205,0.432-0.48,0.809-0.826,1.129
		c-0.346,0.321-0.749,0.579-1.21,0.778c-0.461,0.199-0.947,0.311-1.458,0.34V74.45z"/>
	<path style="fill:#7B5F3F;" d="M256.735,80.943c0.194,0.604,0.473,1.074,0.837,1.409c0.364,0.336,0.82,0.503,1.367,0.503
		c0.231,0,0.441-0.029,0.632-0.087c0.191-0.058,0.356-0.138,0.497-0.243c0.141-0.105,0.249-0.225,0.324-0.363
		c0.075-0.136,0.114-0.284,0.114-0.442c0-0.26-0.049-0.493-0.146-0.697c-0.098-0.205-0.233-0.391-0.406-0.556
		c-0.173-0.166-0.378-0.319-0.616-0.459c-0.237-0.141-0.493-0.271-0.766-0.395c-0.44-0.194-0.876-0.405-1.308-0.632
		c-0.431-0.226-0.821-0.486-1.166-0.777c-0.346-0.292-0.625-0.626-0.837-1c-0.212-0.374-0.319-0.806-0.319-1.296
		c0-0.468,0.097-0.895,0.292-1.28c0.194-0.385,0.468-0.715,0.821-0.988c0.353-0.274,0.774-0.486,1.264-0.637
		c0.489-0.151,1.029-0.226,1.62-0.226c0.54,0,1.019,0.05,1.437,0.15c0.417,0.102,0.784,0.246,1.102,0.432
		c0.317,0.188,0.598,0.416,0.842,0.686c0.245,0.27,0.465,0.575,0.659,0.913l-1.944,0.67c-0.101-0.352-0.223-0.627-0.367-0.821
		c-0.145-0.194-0.296-0.34-0.454-0.437c-0.159-0.098-0.313-0.157-0.465-0.179c-0.151-0.021-0.284-0.032-0.4-0.032
		c-0.208,0-0.407,0.024-0.593,0.071c-0.188,0.046-0.353,0.113-0.497,0.2c-0.145,0.086-0.26,0.193-0.347,0.319
		c-0.086,0.126-0.129,0.271-0.129,0.438c0,0.208,0.054,0.407,0.162,0.593c0.107,0.188,0.259,0.363,0.454,0.525
		c0.194,0.162,0.423,0.314,0.686,0.458c0.263,0.145,0.549,0.281,0.858,0.411c0.468,0.194,0.924,0.411,1.367,0.648
		c0.443,0.238,0.837,0.506,1.182,0.805c0.346,0.299,0.623,0.631,0.832,0.994c0.209,0.364,0.313,0.769,0.313,1.216
		c0,0.483-0.079,0.932-0.237,1.35c-0.159,0.418-0.416,0.782-0.773,1.091c-0.356,0.31-0.818,0.555-1.383,0.735
		c-0.566,0.18-1.251,0.27-2.058,0.27c-0.691,0-1.276-0.079-1.755-0.238c-0.479-0.158-0.884-0.362-1.215-0.611
		c-0.332-0.248-0.605-0.527-0.821-0.837c-0.217-0.309-0.408-0.616-0.573-0.919L256.735,80.943z"/>
	<path style="fill:#7B5F3F;" d="M292.232,77.053v6.979h-3.598V69.383h3.598v6.417h5.888v-6.417h3.565v14.649h-3.565v-6.979H292.232z
		"/>
	<path style="fill:#7B5F3F;" d="M314.957,84.237c-0.879,0-1.691-0.144-2.436-0.431c-0.746-0.289-1.391-0.685-1.934-1.189
		c-0.544-0.504-0.969-1.097-1.275-1.777c-0.307-0.68-0.459-1.416-0.459-2.209c0-0.85,0.152-1.633,0.459-2.35
		c0.306-0.716,0.729-1.334,1.269-1.852c0.54-0.518,1.182-0.924,1.928-1.216c0.745-0.292,1.557-0.437,2.436-0.437
		s1.692,0.142,2.441,0.426c0.749,0.284,1.395,0.675,1.939,1.173c0.544,0.497,0.971,1.082,1.28,1.756
		c0.31,0.673,0.465,1.398,0.465,2.176c0,0.814-0.153,1.581-0.459,2.302c-0.306,0.72-0.731,1.348-1.275,1.884
		s-1.19,0.961-1.939,1.275C316.649,84.08,315.835,84.237,314.957,84.237z M315.345,82.887c0.303,0,0.584-0.099,0.843-0.297
		c0.259-0.199,0.484-0.465,0.675-0.799c0.191-0.335,0.338-0.722,0.443-1.161c0.104-0.44,0.157-0.897,0.157-1.372
		c0-0.706-0.053-1.37-0.157-1.993c-0.105-0.623-0.276-1.169-0.514-1.637c-0.237-0.468-0.545-0.838-0.923-1.113
		c-0.379-0.274-0.841-0.41-1.389-0.41c-0.266,0-0.523,0.097-0.767,0.292c-0.245,0.194-0.46,0.455-0.648,0.783
		c-0.188,0.327-0.337,0.705-0.449,1.134c-0.112,0.428-0.167,0.88-0.167,1.355c0,0.714,0.067,1.386,0.2,2.021
		c0.134,0.634,0.324,1.187,0.573,1.658c0.249,0.472,0.55,0.847,0.908,1.123C314.487,82.749,314.891,82.887,315.345,82.887z"/>
	<path style="fill:#7B5F3F;" d="M341.939,76.535c0-0.245-0.031-0.476-0.092-0.696c-0.061-0.22-0.146-0.411-0.254-0.573
		c-0.107-0.162-0.234-0.292-0.378-0.388c-0.144-0.098-0.299-0.146-0.465-0.146c-0.194,0-0.396,0.032-0.605,0.097
		c-0.208,0.065-0.415,0.151-0.621,0.26c-0.205,0.108-0.397,0.234-0.577,0.378c-0.18,0.145-0.339,0.296-0.475,0.454v8.113h-3.317
		v-7.497c0-0.245-0.032-0.476-0.097-0.696c-0.065-0.22-0.153-0.411-0.265-0.573c-0.112-0.162-0.239-0.292-0.384-0.388
		c-0.144-0.098-0.291-0.146-0.442-0.146c-0.18,0-0.373,0.032-0.578,0.097c-0.205,0.065-0.411,0.151-0.616,0.26
		s-0.403,0.234-0.594,0.378c-0.19,0.145-0.362,0.296-0.513,0.454v8.113h-3.349V73.974l2.345-1.232h1.004v1.2
		c0.526-0.361,1.072-0.645,1.637-0.854c0.564-0.208,1.106-0.312,1.626-0.312c0.288,0,0.577,0.032,0.869,0.097
		c0.292,0.065,0.573,0.157,0.842,0.276c0.27,0.119,0.52,0.263,0.751,0.432c0.231,0.168,0.428,0.362,0.594,0.577
		c0.252-0.202,0.529-0.388,0.832-0.561c0.303-0.173,0.621-0.319,0.956-0.438c0.335-0.119,0.677-0.212,1.026-0.281
		c0.35-0.069,0.697-0.102,1.043-0.102c0.468,0,0.913,0.09,1.334,0.269c0.422,0.18,0.791,0.429,1.107,0.746
		c0.318,0.317,0.569,0.688,0.757,1.113c0.187,0.425,0.281,0.882,0.281,1.371v7.757h-3.381V76.535z"/>
	<path style="fill:#7B5F3F;" d="M358.289,84.281c-0.784,0-1.523-0.146-2.215-0.438c-0.691-0.292-1.292-0.685-1.804-1.178
		c-0.512-0.493-0.916-1.066-1.216-1.717c-0.298-0.652-0.447-1.341-0.447-2.069c0-0.871,0.136-1.68,0.41-2.425
		c0.274-0.746,0.663-1.392,1.167-1.94c0.503-0.547,1.106-0.973,1.809-1.28c0.702-0.306,1.485-0.458,2.35-0.458
		c0.77,0,1.475,0.122,2.117,0.367c0.641,0.245,1.19,0.579,1.647,1.004s0.812,0.926,1.064,1.502s0.378,1.191,0.378,1.847h-7.659
		c0.029,0.613,0.121,1.195,0.276,1.75s0.362,1.043,0.621,1.464c0.259,0.422,0.563,0.756,0.913,1.004
		c0.349,0.249,0.736,0.373,1.161,0.373c0.367,0,0.729-0.063,1.086-0.189c0.356-0.127,0.686-0.299,0.988-0.519
		c0.303-0.219,0.565-0.475,0.789-0.766c0.223-0.292,0.385-0.607,0.486-0.945l1.706,0.269c-0.173,0.599-0.447,1.16-0.826,1.686
		c-0.378,0.526-0.821,0.987-1.328,1.383c-0.508,0.396-1.06,0.707-1.658,0.934C359.506,84.167,358.902,84.281,358.289,84.281z
		 M359.705,76.351c-0.029-0.324-0.099-0.621-0.21-0.892c-0.112-0.269-0.254-0.502-0.427-0.696s-0.375-0.343-0.605-0.449
		c-0.231-0.104-0.479-0.157-0.745-0.157c-0.209,0-0.414,0.053-0.616,0.157c-0.202,0.105-0.384,0.252-0.546,0.443
		c-0.162,0.191-0.298,0.422-0.41,0.691c-0.112,0.27-0.186,0.571-0.222,0.902H359.705z"/>
</g>
<g>
	<path style="fill:#DE652F;" d="M176.823,32.762c-0.096,0.576-0.144,1.057-0.24,1.536c-0.096,0.769-0.192,1.345-0.336,1.681
		c-1.248,0-2.448-0.048-3.601-0.145c-1.248-0.096-2.448-0.24-3.648-0.432c0-1.057,0.096-2.16,0.288-3.312
		C171.879,32.283,174.423,32.474,176.823,32.762z M180.039,22.057c-0.288,1.057-0.672,1.969-1.152,2.833
		c-2.976-0.192-5.568-0.96-7.777-2.305c0.192-1.056,0.528-2.016,0.96-2.88C174.471,19.946,177.159,20.714,180.039,22.057z
		 M178.599,44.956c-1.872,1.44-3.84,2.353-5.904,2.832c-0.72-0.912-1.248-1.824-1.536-2.688c1.92-1.248,3.936-2.256,6-2.928
		C177.831,43.132,178.311,44.044,178.599,44.956z M194.921,28.394c0.096,0.48,0.192,0.96,0.192,1.488s-0.048,1.008-0.096,1.44
		c-1.248,0.287-3.168,0.384-5.761,0.384c-0.768,0-1.44,0-1.968-0.048c-0.096,4.896-0.144,9.408-0.144,13.537
		c1.488,0.096,3.168,0.191,5.04,0.288c0.096,0.384,0.192,0.768,0.192,1.151c0,0.576-0.096,1.104-0.192,1.585
		c-1.056,0.144-2.544,0.239-4.464,0.239c-1.2,0-2.4-0.096-3.648-0.191c-0.288-1.2-0.432-4.513-0.432-9.938
		c0-4.128,0.192-8.208,0.576-12.192c0.48-0.048,1.056-0.097,1.632-0.097c0.672,0.097,1.152,0.192,1.536,0.288
		c-0.048,0.769-0.048,1.44-0.048,2.112c0.624,0,1.344-0.048,2.112-0.048H194.921z M197.705,20.378
		c2.304,0.192,4.801,0.432,7.441,0.72c0.288,1.44,0.432,3.553,0.432,6.289c0,4.608-0.096,7.633-0.192,9.072
		c-0.864,0.672-2.736,0.96-5.521,0.96c-3.504,0-6.24-0.096-8.256-0.384c-0.144-0.479-0.192-0.912-0.192-1.392
		c0-0.673,0.096-1.152,0.288-1.44c3.504-0.096,6.961-0.145,10.417-0.192c0-3.264-0.192-6.528-0.576-9.889
		c-4.944-0.191-10.417-0.576-16.417-1.248c0-1.248,0.048-2.256,0.192-3.12c2.592,0,5.568,0.144,8.977,0.336
		c-0.384-1.393-0.528-2.929-0.528-4.561c1.056-0.191,2.064-0.288,3.12-0.288C197.321,17.161,197.609,18.842,197.705,20.378z
		 M199.481,41.595c1.344-1.056,2.688-2.017,4.032-2.929c0.768,0.673,1.488,1.345,2.16,2.112c-0.48,0.48-1.2,0.96-2.064,1.488
		c-0.432,0.336-0.912,0.672-1.392,1.008c-0.144,0.097-0.24,0.192-0.336,0.24c1.344,1.057,2.64,2.16,3.936,3.265
		c-0.48,0.912-1.152,1.632-2.016,2.208c-3.456-2.496-6.721-5.137-9.697-7.824c0.672-0.864,1.392-1.536,2.112-2.112
		C197.321,39.916,198.425,40.731,199.481,41.595z"/>
	<path style="fill:#DE652F;" d="M221.759,36.747c-0.528-0.672-0.912-1.488-1.152-2.352c4.896-2.545,10.225-4.705,16.081-6.529
		c0.625,0.769,1.056,1.584,1.296,2.4c-1.68,0.864-3.36,1.632-4.993,2.305c2.016,5.376,3.216,10.608,3.601,15.697
		c-1.008,0.479-2.977,0.72-5.953,0.72c-0.192-0.72-0.24-1.44-0.24-2.256c0.912-0.048,1.873-0.145,2.833-0.288
		c-1.008-4.32-2.016-8.593-3.024-12.722C227.423,34.875,224.639,35.883,221.759,36.747z M235.776,20.378
		c-5.137,1.344-9.985,2.304-14.498,2.88c-0.384-0.768-0.576-1.632-0.576-2.544c4.801-1.68,9.601-2.688,14.401-3.024
		C235.536,18.458,235.776,19.37,235.776,20.378z M226.895,40.54c-0.528,0.863-1.104,1.68-1.729,2.448
		c-0.384,0.384-0.72,0.768-1.056,1.104c-0.336,0.48-0.672,0.864-1.056,1.248c-0.864-0.576-1.632-1.248-2.256-2.064
		c1.008-1.584,2.208-3.12,3.648-4.608C225.455,39.243,226.271,39.867,226.895,40.54z M226.799,29.354
		c-0.864,0.48-1.728,0.721-2.592,0.816c-0.672-1.152-1.056-2.544-1.152-4.272c0.672-0.288,1.536-0.528,2.544-0.72
		C226.175,26.138,226.559,27.53,226.799,29.354z M230.448,45.052c-0.384,0.672-0.864,1.345-1.392,1.969
		c-0.288,0.336-0.576,0.624-0.864,0.912c-0.24,0.336-0.528,0.672-0.816,1.008c-0.912-0.576-1.68-1.248-2.256-2.064
		c0.816-1.248,1.776-2.496,2.88-3.696C229.007,43.756,229.824,44.38,230.448,45.052z M233.424,27.578
		c-0.864,0.48-1.728,0.721-2.544,0.816c-0.624-1.104-0.96-2.496-1.056-4.128c0.672-0.288,1.488-0.48,2.448-0.673
		C232.8,24.458,233.184,25.803,233.424,27.578z M243.264,21.097c0-1.584,0.192-3.12,0.528-4.561
		c0.432-0.096,0.912-0.191,1.392-0.191s0.96,0.096,1.392,0.191c0.144,1.873,0.24,3.457,0.288,4.705
		c2.112,0.096,4.272,0.24,6.433,0.384c0.192-1.344,0.432-2.688,0.72-4.032c1.057,0.096,1.969,0.192,2.832,0.384
		c-0.096,1.344-0.239,2.641-0.432,3.984c1.44,0.145,2.88,0.288,4.32,0.48c0,1.056-0.096,2.063-0.24,3.072
		c-1.584,0-3.12,0-4.561-0.049c-0.191,1.249-0.384,2.497-0.576,3.745c-1.151-0.048-2.112-0.24-2.976-0.624
		c0.096-1.104,0.192-2.209,0.384-3.265c-2.064-0.048-4.032-0.144-5.953-0.336c-0.096,1.344-0.144,2.448-0.24,3.312
		c-0.288,0.191-0.768,0.288-1.392,0.288c-0.672,0-1.152-0.097-1.392-0.288c-0.24-1.057-0.384-2.257-0.432-3.601
		c-1.824-0.144-3.552-0.336-5.232-0.576c0-1.152,0.096-2.16,0.336-3.12C240.096,21.002,241.68,21.05,243.264,21.097z
		 M246.481,49.469c-3.024,0-5.568-0.336-7.681-0.912c-0.288-4.417-0.48-9.697-0.528-15.842c1.008-0.096,2.016-0.192,3.024-0.192
		c0.096,1.921,0.144,3.841,0.192,5.761c1.584,0.097,3.216,0.192,4.848,0.288c-0.096-1.248-0.144-2.448-0.144-3.648
		c-0.672-0.048-1.248-0.144-1.824-0.24c0-0.911,0-1.823,0.096-2.688c5.568,0.191,10.609,0.527,15.121,0.912
		c0,7.296-0.336,12.673-0.96,16.129C257.09,49.324,253.01,49.469,246.481,49.469z M241.728,46.06
		c1.729,0.096,3.457,0.191,5.137,0.239c-0.192-1.536-0.288-3.072-0.384-4.608c-1.728-0.096-3.36-0.288-4.896-0.479
		C241.633,42.844,241.68,44.428,241.728,46.06z M255.842,46.492c0-2.736,0.096-6.337,0.336-10.801
		c-2.4-0.097-4.656-0.24-6.769-0.433c0.096,1.248,0.192,2.448,0.288,3.601c0.96,0.096,1.92,0.24,2.88,0.336
		c0,0.816-0.096,1.729-0.288,2.688c-0.864,0-1.68,0-2.4-0.048c0.048,1.536,0.096,3.024,0.096,4.561
		C252.001,46.492,253.97,46.492,255.842,46.492z"/>
	<path style="fill:#DE652F;" d="M305.962,27.866c-1.008,5.377-2.4,10.705-4.129,15.89c-1.008-0.096-2.016-0.432-3.072-0.96
		c0.912-3.937,1.824-7.873,2.784-11.81c-7.248-0.624-14.545-1.199-21.842-1.775c0-0.912,0.049-1.921,0.192-3.024
		C288.536,26.282,297.224,26.81,305.962,27.866z M304.233,48.652c-0.336,0.96-0.72,1.872-1.152,2.736
		c-5.424-1.536-10.513-3.168-15.217-4.992c-1.008,1.584-2.064,3.12-3.168,4.56c-1.248-0.527-2.16-1.104-2.736-1.775
		c1.296-2.305,2.784-4.705,4.416-7.104C292.377,44.284,298.329,46.492,304.233,48.652z M298.472,18.601
		c-0.287,1.152-0.72,2.257-1.199,3.265c-3.648-1.057-7.105-2.305-10.369-3.793c0.288-1.248,0.624-2.352,1.104-3.216
		C291.56,16.01,295.064,17.258,298.472,18.601z"/>
	<path style="fill:#DE652F;" d="M332.656,18.17c0,3.072-0.192,6.528-0.576,10.272c-0.384,0.145-0.912,0.192-1.632,0.192
		c-0.721,0-1.248-0.097-1.536-0.336c0-4.513,0.191-7.921,0.576-10.321c0.479-0.048,1.008-0.096,1.632-0.096
		C331.599,17.882,332.128,17.977,332.656,18.17z M343.025,33.387c-1.729,1.104-3.505,2.112-5.329,3.072
		c-1.008,0.576-1.92,1.057-2.688,1.536c-0.96,0.576-1.92,1.057-2.832,1.488c-0.768-0.768-1.344-1.584-1.728-2.448
		c0.768-0.576,1.584-1.2,2.544-1.824c0.864-0.528,1.729-1.056,2.592-1.536c0.912-0.479,1.824-0.96,2.784-1.488
		c0.912-0.384,1.872-0.768,2.929-1.248C341.969,31.61,342.545,32.427,343.025,33.387z M336.544,41.26
		c-0.72,2.496-1.728,4.992-2.976,7.488c-1.152-0.288-2.064-0.72-2.832-1.344c0.863-2.593,1.775-4.992,2.832-7.201
		C334.528,40.491,335.488,40.827,336.544,41.26z M345.857,17.882c-0.192-1.2-0.288-2.4-0.288-3.601
		c0.288-0.192,0.815-0.336,1.536-0.432c0.72,0,1.248,0.096,1.536,0.191c0.24,1.297,0.384,2.593,0.432,3.889
		c4.801,0.096,9.553,0.288,14.21,0.48c0.287,3.12,0.432,6.096,0.432,8.929c-0.288,0.144-0.769,0.191-1.344,0.191
		c-0.433,0-0.961,0-1.585-0.096c-0.239-1.248-0.479-3.312-0.672-6.097c-7.488,0-15.073-0.192-22.706-0.672
		c-0.144-0.433-0.191-0.96-0.191-1.536c0-0.433,0-0.864,0.096-1.344C340.192,17.786,343.025,17.834,345.857,17.882z M342.688,43.996
		c-0.527,1.968-1.248,3.888-2.111,5.904c-1.152-0.24-2.112-0.672-2.881-1.344c0.576-2.017,1.248-3.889,1.92-5.617
		C340.577,43.227,341.633,43.563,342.688,43.996z M355.265,27.578c0,0.96-0.096,1.921-0.288,2.977
		c-5.616,0-11.185-0.288-16.657-0.912v-1.632c0-0.384,0-0.816,0.097-1.296C343.217,26.715,348.833,27.003,355.265,27.578z
		 M352.145,51.196c-0.815,0.385-1.872,0.576-3.168,0.576s-2.544-0.191-3.744-0.528c-0.097-0.384-0.097-0.768-0.097-1.151v-1.297
		c1.488,0.192,2.593,0.337,3.36,0.337c-0.672-5.041-1.584-10.033-2.688-14.978c1.151-0.384,2.256-0.624,3.312-0.624
		C350.513,39.387,351.521,45.244,352.145,51.196z M362.995,37.227c-2.305,0.864-4.945,1.68-7.825,2.352
		c-0.864-1.104-1.248-2.111-1.248-3.072c2.784-0.863,5.328-1.584,7.729-2.208C362.419,35.355,362.85,36.315,362.995,37.227z
		 M363.138,46.347c-0.288,0.961-0.816,1.873-1.488,2.833c-1.824-0.433-3.888-1.152-6.145-2.112c0.24-1.057,0.672-2.112,1.248-3.12
		C359.011,44.524,361.122,45.34,363.138,46.347z"/>
</g>
</svg>
